<mxfile host="app.diagrams.net" modified="2022-02-10T18:26:36.162Z" agent="5.0 (Macintosh; Intel Mac OS X 10_15_7) AppleWebKit/605.1.15 (KHTML, like Gecko) Version/15.1 Safari/605.1.15" etag="fXRVsL77ViANqLFV9miz" version="16.5.3" type="github">
  <diagram id="IGl6RWjY7F573OC9iPI2" name="Page-1">
    <mxGraphModel dx="1176" dy="646" grid="0" gridSize="10" guides="1" tooltips="1" connect="1" arrows="1" fold="1" page="1" pageScale="1" pageWidth="850" pageHeight="1100" math="0" shadow="0">
      <root>
        <mxCell id="0" />
        <mxCell id="1" parent="0" />
        <mxCell id="16duhaMjEaWlvfPsUkM_-1" value="bb" style="text;html=1;align=center;verticalAlign=middle;resizable=0;points=[];autosize=1;strokeColor=#9673a6;fillColor=#e1d5e7;" parent="1" vertex="1">
          <mxGeometry x="425" y="741" width="23" height="18" as="geometry" />
        </mxCell>
        <mxCell id="16duhaMjEaWlvfPsUkM_-3" style="edgeStyle=orthogonalEdgeStyle;rounded=0;orthogonalLoop=1;jettySize=auto;html=1;" parent="1" source="16duhaMjEaWlvfPsUkM_-2" target="16duhaMjEaWlvfPsUkM_-1" edge="1">
          <mxGeometry relative="1" as="geometry" />
        </mxCell>
        <mxCell id="16duhaMjEaWlvfPsUkM_-2" value="aa" style="text;html=1;align=center;verticalAlign=middle;resizable=0;points=[];autosize=1;strokeColor=#9673a6;fillColor=#e1d5e7;" parent="1" vertex="1">
          <mxGeometry x="425" y="684" width="23" height="18" as="geometry" />
        </mxCell>
        <mxCell id="16duhaMjEaWlvfPsUkM_-5" style="edgeStyle=orthogonalEdgeStyle;rounded=0;orthogonalLoop=1;jettySize=auto;html=1;" parent="1" source="16duhaMjEaWlvfPsUkM_-4" target="16duhaMjEaWlvfPsUkM_-2" edge="1">
          <mxGeometry relative="1" as="geometry" />
        </mxCell>
        <mxCell id="16duhaMjEaWlvfPsUkM_-4" value="z" style="text;html=1;align=center;verticalAlign=middle;resizable=0;points=[];autosize=1;strokeColor=#9673a6;fillColor=#e1d5e7;" parent="1" vertex="1">
          <mxGeometry x="428.5" y="634" width="16" height="18" as="geometry" />
        </mxCell>
        <mxCell id="16duhaMjEaWlvfPsUkM_-7" style="edgeStyle=orthogonalEdgeStyle;rounded=0;orthogonalLoop=1;jettySize=auto;html=1;" parent="1" source="16duhaMjEaWlvfPsUkM_-6" target="16duhaMjEaWlvfPsUkM_-4" edge="1">
          <mxGeometry relative="1" as="geometry" />
        </mxCell>
        <mxCell id="16duhaMjEaWlvfPsUkM_-6" value="y" style="text;html=1;align=center;verticalAlign=middle;resizable=0;points=[];autosize=1;strokeColor=#9673a6;fillColor=#e1d5e7;" parent="1" vertex="1">
          <mxGeometry x="428.5" y="582" width="16" height="18" as="geometry" />
        </mxCell>
        <mxCell id="16duhaMjEaWlvfPsUkM_-9" style="edgeStyle=orthogonalEdgeStyle;rounded=0;orthogonalLoop=1;jettySize=auto;html=1;" parent="1" source="16duhaMjEaWlvfPsUkM_-8" target="16duhaMjEaWlvfPsUkM_-6" edge="1">
          <mxGeometry relative="1" as="geometry" />
        </mxCell>
        <mxCell id="16duhaMjEaWlvfPsUkM_-8" value="x" style="text;html=1;align=center;verticalAlign=middle;resizable=0;points=[];autosize=1;strokeColor=#9673a6;fillColor=#e1d5e7;" parent="1" vertex="1">
          <mxGeometry x="429" y="533" width="16" height="18" as="geometry" />
        </mxCell>
        <mxCell id="16duhaMjEaWlvfPsUkM_-12" style="edgeStyle=orthogonalEdgeStyle;rounded=0;orthogonalLoop=1;jettySize=auto;html=1;" parent="1" source="16duhaMjEaWlvfPsUkM_-11" target="16duhaMjEaWlvfPsUkM_-8" edge="1">
          <mxGeometry relative="1" as="geometry">
            <Array as="points">
              <mxPoint x="602" y="521" />
              <mxPoint x="437" y="521" />
            </Array>
          </mxGeometry>
        </mxCell>
        <mxCell id="16duhaMjEaWlvfPsUkM_-11" value="v" style="text;html=1;align=center;verticalAlign=middle;resizable=0;points=[];autosize=1;strokeColor=#9673a6;fillColor=#e1d5e7;" parent="1" vertex="1">
          <mxGeometry x="594" y="488" width="16" height="18" as="geometry" />
        </mxCell>
        <mxCell id="16duhaMjEaWlvfPsUkM_-15" style="edgeStyle=orthogonalEdgeStyle;rounded=1;orthogonalLoop=1;jettySize=auto;html=1;entryX=0.631;entryY=0.09;entryDx=0;entryDy=0;entryPerimeter=0;" parent="1" source="16duhaMjEaWlvfPsUkM_-13" target="16duhaMjEaWlvfPsUkM_-11" edge="1">
          <mxGeometry relative="1" as="geometry" />
        </mxCell>
        <mxCell id="16duhaMjEaWlvfPsUkM_-13" value="m" style="text;html=1;align=center;verticalAlign=middle;resizable=0;points=[];autosize=1;strokeColor=#9673a6;fillColor=#e1d5e7;" parent="1" vertex="1">
          <mxGeometry x="594" y="444" width="20" height="18" as="geometry" />
        </mxCell>
        <mxCell id="16duhaMjEaWlvfPsUkM_-19" style="edgeStyle=orthogonalEdgeStyle;rounded=1;orthogonalLoop=1;jettySize=auto;html=1;" parent="1" source="16duhaMjEaWlvfPsUkM_-16" target="16duhaMjEaWlvfPsUkM_-13" edge="1">
          <mxGeometry relative="1" as="geometry" />
        </mxCell>
        <mxCell id="16duhaMjEaWlvfPsUkM_-16" value="L" style="text;html=1;align=center;verticalAlign=middle;resizable=0;points=[];autosize=1;strokeColor=#9673a6;fillColor=#e1d5e7;" parent="1" vertex="1">
          <mxGeometry x="595.5" y="401" width="17" height="18" as="geometry" />
        </mxCell>
        <mxCell id="16duhaMjEaWlvfPsUkM_-21" style="edgeStyle=orthogonalEdgeStyle;rounded=0;orthogonalLoop=1;jettySize=auto;html=1;entryX=-0.013;entryY=0.517;entryDx=0;entryDy=0;entryPerimeter=0;" parent="1" source="16duhaMjEaWlvfPsUkM_-20" target="16duhaMjEaWlvfPsUkM_-16" edge="1">
          <mxGeometry relative="1" as="geometry">
            <Array as="points">
              <mxPoint x="563" y="410" />
            </Array>
          </mxGeometry>
        </mxCell>
        <mxCell id="16duhaMjEaWlvfPsUkM_-20" value="j" style="text;html=1;align=center;verticalAlign=middle;resizable=0;points=[];autosize=1;strokeColor=#9673a6;fillColor=#e1d5e7;" parent="1" vertex="1">
          <mxGeometry x="557" y="360" width="13" height="18" as="geometry" />
        </mxCell>
        <mxCell id="ZMSLtqpF6Ie2z9hWb9ZS-2" style="edgeStyle=orthogonalEdgeStyle;rounded=0;orthogonalLoop=1;jettySize=auto;html=1;" parent="1" source="ZMSLtqpF6Ie2z9hWb9ZS-1" target="16duhaMjEaWlvfPsUkM_-20" edge="1">
          <mxGeometry relative="1" as="geometry" />
        </mxCell>
        <mxCell id="ZMSLtqpF6Ie2z9hWb9ZS-1" value="i" style="text;html=1;align=center;verticalAlign=middle;resizable=0;points=[];autosize=1;strokeColor=#9673a6;fillColor=#e1d5e7;" parent="1" vertex="1">
          <mxGeometry x="557" y="305" width="13" height="18" as="geometry" />
        </mxCell>
        <mxCell id="ZMSLtqpF6Ie2z9hWb9ZS-4" style="edgeStyle=orthogonalEdgeStyle;rounded=0;orthogonalLoop=1;jettySize=auto;html=1;" parent="1" source="ZMSLtqpF6Ie2z9hWb9ZS-3" target="ZMSLtqpF6Ie2z9hWb9ZS-1" edge="1">
          <mxGeometry relative="1" as="geometry" />
        </mxCell>
        <mxCell id="ZMSLtqpF6Ie2z9hWb9ZS-3" value="h" style="text;html=1;align=center;verticalAlign=middle;resizable=0;points=[];autosize=1;strokeColor=#9673a6;fillColor=#e1d5e7;" parent="1" vertex="1">
          <mxGeometry x="555" y="263" width="17" height="18" as="geometry" />
        </mxCell>
        <mxCell id="ZMSLtqpF6Ie2z9hWb9ZS-7" style="edgeStyle=orthogonalEdgeStyle;rounded=0;orthogonalLoop=1;jettySize=auto;html=1;entryX=-0.025;entryY=0.46;entryDx=0;entryDy=0;entryPerimeter=0;" parent="1" source="ZMSLtqpF6Ie2z9hWb9ZS-6" target="ZMSLtqpF6Ie2z9hWb9ZS-3" edge="1">
          <mxGeometry relative="1" as="geometry">
            <Array as="points">
              <mxPoint x="535" y="271" />
            </Array>
          </mxGeometry>
        </mxCell>
        <mxCell id="ZMSLtqpF6Ie2z9hWb9ZS-6" value="f" style="text;html=1;align=center;verticalAlign=middle;resizable=0;points=[];autosize=1;strokeColor=#9673a6;fillColor=#e1d5e7;" parent="1" vertex="1">
          <mxGeometry x="529" y="212" width="13" height="18" as="geometry" />
        </mxCell>
        <mxCell id="ZMSLtqpF6Ie2z9hWb9ZS-10" style="edgeStyle=orthogonalEdgeStyle;rounded=0;orthogonalLoop=1;jettySize=auto;html=1;entryX=1.05;entryY=0.46;entryDx=0;entryDy=0;entryPerimeter=0;" parent="1" source="ZMSLtqpF6Ie2z9hWb9ZS-9" target="ZMSLtqpF6Ie2z9hWb9ZS-3" edge="1">
          <mxGeometry relative="1" as="geometry">
            <Array as="points">
              <mxPoint x="603" y="271" />
            </Array>
          </mxGeometry>
        </mxCell>
        <mxCell id="ZMSLtqpF6Ie2z9hWb9ZS-9" value="g" style="text;html=1;align=center;verticalAlign=middle;resizable=0;points=[];autosize=1;strokeColor=#9673a6;fillColor=#e1d5e7;" parent="1" vertex="1">
          <mxGeometry x="594" y="212" width="17" height="18" as="geometry" />
        </mxCell>
        <mxCell id="ZMSLtqpF6Ie2z9hWb9ZS-12" style="edgeStyle=orthogonalEdgeStyle;rounded=0;orthogonalLoop=1;jettySize=auto;html=1;" parent="1" source="ZMSLtqpF6Ie2z9hWb9ZS-11" target="ZMSLtqpF6Ie2z9hWb9ZS-9" edge="1">
          <mxGeometry relative="1" as="geometry" />
        </mxCell>
        <mxCell id="ZMSLtqpF6Ie2z9hWb9ZS-11" value="c" style="text;html=1;align=center;verticalAlign=middle;resizable=0;points=[];autosize=1;strokeColor=#9673a6;fillColor=#e1d5e7;" parent="1" vertex="1">
          <mxGeometry x="594.5" y="164" width="16" height="18" as="geometry" />
        </mxCell>
        <mxCell id="ZMSLtqpF6Ie2z9hWb9ZS-15" style="edgeStyle=orthogonalEdgeStyle;rounded=0;orthogonalLoop=1;jettySize=auto;html=1;" parent="1" source="ZMSLtqpF6Ie2z9hWb9ZS-13" edge="1">
          <mxGeometry relative="1" as="geometry">
            <mxPoint x="613" y="171" as="targetPoint" />
            <Array as="points">
              <mxPoint x="645" y="171" />
            </Array>
          </mxGeometry>
        </mxCell>
        <mxCell id="ZMSLtqpF6Ie2z9hWb9ZS-13" value="b" style="text;html=1;align=center;verticalAlign=middle;resizable=0;points=[];autosize=1;strokeColor=#9673a6;fillColor=#e1d5e7;" parent="1" vertex="1">
          <mxGeometry x="636.85" y="109" width="17" height="18" as="geometry" />
        </mxCell>
        <mxCell id="ZMSLtqpF6Ie2z9hWb9ZS-18" style="edgeStyle=orthogonalEdgeStyle;rounded=0;orthogonalLoop=1;jettySize=auto;html=1;" parent="1" edge="1">
          <mxGeometry relative="1" as="geometry">
            <mxPoint x="484" y="110" as="sourcePoint" />
            <mxPoint x="593" y="174" as="targetPoint" />
            <Array as="points">
              <mxPoint x="484" y="110" />
              <mxPoint x="484" y="174" />
            </Array>
          </mxGeometry>
        </mxCell>
        <mxCell id="ZMSLtqpF6Ie2z9hWb9ZS-53" style="edgeStyle=orthogonalEdgeStyle;rounded=0;orthogonalLoop=1;jettySize=auto;html=1;entryX=1.028;entryY=0.423;entryDx=0;entryDy=0;entryPerimeter=0;fontColor=#000000;" parent="1" source="ZMSLtqpF6Ie2z9hWb9ZS-17" target="ZMSLtqpF6Ie2z9hWb9ZS-46" edge="1">
          <mxGeometry relative="1" as="geometry">
            <Array as="points">
              <mxPoint x="366" y="103" />
              <mxPoint x="366" y="150" />
            </Array>
          </mxGeometry>
        </mxCell>
        <mxCell id="ZMSLtqpF6Ie2z9hWb9ZS-17" value="a" style="text;html=1;align=center;verticalAlign=middle;resizable=0;points=[];autosize=1;strokeColor=#9673a6;fillColor=#e1d5e7;" parent="1" vertex="1">
          <mxGeometry x="476" y="94" width="17" height="18" as="geometry" />
        </mxCell>
        <mxCell id="ZMSLtqpF6Ie2z9hWb9ZS-21" style="edgeStyle=orthogonalEdgeStyle;rounded=0;orthogonalLoop=1;jettySize=auto;html=1;entryX=1.055;entryY=0.54;entryDx=0;entryDy=0;entryPerimeter=0;" parent="1" source="ZMSLtqpF6Ie2z9hWb9ZS-20" target="16duhaMjEaWlvfPsUkM_-16" edge="1">
          <mxGeometry relative="1" as="geometry">
            <Array as="points">
              <mxPoint x="647" y="411" />
            </Array>
          </mxGeometry>
        </mxCell>
        <mxCell id="ZMSLtqpF6Ie2z9hWb9ZS-20" value="k" style="text;html=1;align=center;verticalAlign=middle;resizable=0;points=[];autosize=1;strokeColor=#9673a6;fillColor=#e1d5e7;" parent="1" vertex="1">
          <mxGeometry x="639" y="360" width="16" height="18" as="geometry" />
        </mxCell>
        <mxCell id="ZMSLtqpF6Ie2z9hWb9ZS-25" style="edgeStyle=orthogonalEdgeStyle;rounded=0;orthogonalLoop=1;jettySize=auto;html=1;fontColor=#000000;" parent="1" source="ZMSLtqpF6Ie2z9hWb9ZS-24" target="16duhaMjEaWlvfPsUkM_-8" edge="1">
          <mxGeometry relative="1" as="geometry">
            <Array as="points">
              <mxPoint x="263" y="520" />
              <mxPoint x="437" y="520" />
            </Array>
          </mxGeometry>
        </mxCell>
        <mxCell id="ZMSLtqpF6Ie2z9hWb9ZS-24" value="w" style="text;html=1;align=center;verticalAlign=middle;resizable=0;points=[];autosize=1;strokeColor=#9673a6;fillColor=#e1d5e7;" parent="1" vertex="1">
          <mxGeometry x="254" y="477" width="19" height="18" as="geometry" />
        </mxCell>
        <mxCell id="ZMSLtqpF6Ie2z9hWb9ZS-27" style="edgeStyle=orthogonalEdgeStyle;rounded=0;orthogonalLoop=1;jettySize=auto;html=1;entryX=0.481;entryY=0.063;entryDx=0;entryDy=0;entryPerimeter=0;fontColor=#000000;" parent="1" source="ZMSLtqpF6Ie2z9hWb9ZS-26" target="ZMSLtqpF6Ie2z9hWb9ZS-24" edge="1">
          <mxGeometry relative="1" as="geometry" />
        </mxCell>
        <mxCell id="ZMSLtqpF6Ie2z9hWb9ZS-26" value="u" style="text;html=1;align=center;verticalAlign=middle;resizable=0;points=[];autosize=1;strokeColor=#9673a6;fillColor=#e1d5e7;" parent="1" vertex="1">
          <mxGeometry x="254" y="427" width="17" height="18" as="geometry" />
        </mxCell>
        <mxCell id="ZMSLtqpF6Ie2z9hWb9ZS-29" style="edgeStyle=orthogonalEdgeStyle;rounded=0;orthogonalLoop=1;jettySize=auto;html=1;entryX=0.538;entryY=-0.079;entryDx=0;entryDy=0;entryPerimeter=0;fontColor=#000000;" parent="1" source="ZMSLtqpF6Ie2z9hWb9ZS-28" target="ZMSLtqpF6Ie2z9hWb9ZS-26" edge="1">
          <mxGeometry relative="1" as="geometry" />
        </mxCell>
        <mxCell id="ZMSLtqpF6Ie2z9hWb9ZS-28" value="t" style="text;html=1;align=center;verticalAlign=middle;resizable=0;points=[];autosize=1;strokeColor=#9673a6;fillColor=#e1d5e7;" parent="1" vertex="1">
          <mxGeometry x="257" y="381" width="13" height="18" as="geometry" />
        </mxCell>
        <mxCell id="ZMSLtqpF6Ie2z9hWb9ZS-33" style="edgeStyle=orthogonalEdgeStyle;rounded=0;orthogonalLoop=1;jettySize=auto;html=1;entryX=1.044;entryY=0.571;entryDx=0;entryDy=0;entryPerimeter=0;fontColor=#000000;" parent="1" source="ZMSLtqpF6Ie2z9hWb9ZS-32" target="ZMSLtqpF6Ie2z9hWb9ZS-28" edge="1">
          <mxGeometry relative="1" as="geometry">
            <Array as="points">
              <mxPoint x="335" y="391" />
            </Array>
          </mxGeometry>
        </mxCell>
        <mxCell id="ZMSLtqpF6Ie2z9hWb9ZS-32" value="s" style="text;html=1;align=center;verticalAlign=middle;resizable=0;points=[];autosize=1;strokeColor=#9673a6;fillColor=#e1d5e7;" parent="1" vertex="1">
          <mxGeometry x="327" y="349" width="16" height="18" as="geometry" />
        </mxCell>
        <mxCell id="ZMSLtqpF6Ie2z9hWb9ZS-35" style="edgeStyle=orthogonalEdgeStyle;rounded=0;orthogonalLoop=1;jettySize=auto;html=1;entryX=-0.011;entryY=0.54;entryDx=0;entryDy=0;entryPerimeter=0;fontColor=#000000;" parent="1" source="ZMSLtqpF6Ie2z9hWb9ZS-34" target="ZMSLtqpF6Ie2z9hWb9ZS-28" edge="1">
          <mxGeometry relative="1" as="geometry">
            <Array as="points">
              <mxPoint x="217" y="391" />
            </Array>
          </mxGeometry>
        </mxCell>
        <mxCell id="ZMSLtqpF6Ie2z9hWb9ZS-34" value="r" style="text;html=1;align=center;verticalAlign=middle;resizable=0;points=[];autosize=1;strokeColor=#9673a6;fillColor=#e1d5e7;" parent="1" vertex="1">
          <mxGeometry x="210" y="340" width="14" height="18" as="geometry" />
        </mxCell>
        <mxCell id="ZMSLtqpF6Ie2z9hWb9ZS-37" style="edgeStyle=orthogonalEdgeStyle;rounded=0;orthogonalLoop=1;jettySize=auto;html=1;fontColor=#000000;" parent="1" source="ZMSLtqpF6Ie2z9hWb9ZS-36" target="ZMSLtqpF6Ie2z9hWb9ZS-34" edge="1">
          <mxGeometry relative="1" as="geometry" />
        </mxCell>
        <mxCell id="ZMSLtqpF6Ie2z9hWb9ZS-36" value="q" style="text;html=1;align=center;verticalAlign=middle;resizable=0;points=[];autosize=1;strokeColor=#9673a6;fillColor=#e1d5e7;" parent="1" vertex="1">
          <mxGeometry x="209" y="292" width="17" height="18" as="geometry" />
        </mxCell>
        <mxCell id="ZMSLtqpF6Ie2z9hWb9ZS-39" style="edgeStyle=orthogonalEdgeStyle;rounded=0;orthogonalLoop=1;jettySize=auto;html=1;entryX=0.529;entryY=-0.071;entryDx=0;entryDy=0;entryPerimeter=0;fontColor=#000000;" parent="1" source="ZMSLtqpF6Ie2z9hWb9ZS-38" target="ZMSLtqpF6Ie2z9hWb9ZS-36" edge="1">
          <mxGeometry relative="1" as="geometry" />
        </mxCell>
        <mxCell id="ZMSLtqpF6Ie2z9hWb9ZS-38" value="p" style="text;html=1;align=center;verticalAlign=middle;resizable=0;points=[];autosize=1;strokeColor=#9673a6;fillColor=#e1d5e7;" parent="1" vertex="1">
          <mxGeometry x="210" y="241" width="17" height="18" as="geometry" />
        </mxCell>
        <mxCell id="ZMSLtqpF6Ie2z9hWb9ZS-43" style="edgeStyle=orthogonalEdgeStyle;rounded=0;orthogonalLoop=1;jettySize=auto;html=1;entryX=1.042;entryY=0.54;entryDx=0;entryDy=0;entryPerimeter=0;fontColor=#000000;" parent="1" source="ZMSLtqpF6Ie2z9hWb9ZS-42" target="ZMSLtqpF6Ie2z9hWb9ZS-38" edge="1">
          <mxGeometry relative="1" as="geometry">
            <Array as="points">
              <mxPoint x="285" y="251" />
            </Array>
          </mxGeometry>
        </mxCell>
        <mxCell id="ZMSLtqpF6Ie2z9hWb9ZS-42" value="o" style="text;html=1;align=center;verticalAlign=middle;resizable=0;points=[];autosize=1;strokeColor=#9673a6;fillColor=#e1d5e7;" parent="1" vertex="1">
          <mxGeometry x="277" y="201" width="17" height="18" as="geometry" />
        </mxCell>
        <mxCell id="ZMSLtqpF6Ie2z9hWb9ZS-45" style="edgeStyle=orthogonalEdgeStyle;rounded=0;orthogonalLoop=1;jettySize=auto;html=1;entryX=-0.034;entryY=0.508;entryDx=0;entryDy=0;entryPerimeter=0;fontColor=#000000;" parent="1" source="ZMSLtqpF6Ie2z9hWb9ZS-44" target="ZMSLtqpF6Ie2z9hWb9ZS-38" edge="1">
          <mxGeometry relative="1" as="geometry">
            <Array as="points">
              <mxPoint x="173" y="250" />
            </Array>
          </mxGeometry>
        </mxCell>
        <mxCell id="ZMSLtqpF6Ie2z9hWb9ZS-44" value="n" style="text;html=1;align=center;verticalAlign=middle;resizable=0;points=[];autosize=1;strokeColor=#9673a6;fillColor=#e1d5e7;" parent="1" vertex="1">
          <mxGeometry x="164" y="197" width="17" height="18" as="geometry" />
        </mxCell>
        <mxCell id="ZMSLtqpF6Ie2z9hWb9ZS-47" style="edgeStyle=orthogonalEdgeStyle;rounded=0;orthogonalLoop=1;jettySize=auto;html=1;fontColor=#000000;" parent="1" source="ZMSLtqpF6Ie2z9hWb9ZS-46" target="ZMSLtqpF6Ie2z9hWb9ZS-44" edge="1">
          <mxGeometry relative="1" as="geometry" />
        </mxCell>
        <mxCell id="ZMSLtqpF6Ie2z9hWb9ZS-59" style="edgeStyle=orthogonalEdgeStyle;orthogonalLoop=1;jettySize=auto;html=1;entryX=-0.08;entryY=0.42;entryDx=0;entryDy=0;entryPerimeter=0;fontColor=#FF0000;strokeColor=#FF3333;curved=1;" parent="1" source="ZMSLtqpF6Ie2z9hWb9ZS-46" target="16duhaMjEaWlvfPsUkM_-20" edge="1">
          <mxGeometry relative="1" as="geometry" />
        </mxCell>
        <mxCell id="ZMSLtqpF6Ie2z9hWb9ZS-46" value="e" style="text;html=1;align=center;verticalAlign=middle;resizable=0;points=[];autosize=1;strokeColor=#9673a6;fillColor=#e1d5e7;" parent="1" vertex="1">
          <mxGeometry x="164" y="142" width="17" height="18" as="geometry" />
        </mxCell>
        <mxCell id="ZMSLtqpF6Ie2z9hWb9ZS-49" style="edgeStyle=orthogonalEdgeStyle;rounded=0;orthogonalLoop=1;jettySize=auto;html=1;entryX=0.353;entryY=0.071;entryDx=0;entryDy=0;entryPerimeter=0;fontColor=#000000;" parent="1" source="ZMSLtqpF6Ie2z9hWb9ZS-48" target="ZMSLtqpF6Ie2z9hWb9ZS-46" edge="1">
          <mxGeometry relative="1" as="geometry" />
        </mxCell>
        <mxCell id="ZMSLtqpF6Ie2z9hWb9ZS-48" value="d" style="text;html=1;align=center;verticalAlign=middle;resizable=0;points=[];autosize=1;strokeColor=#9673a6;fillColor=#e1d5e7;" parent="1" vertex="1">
          <mxGeometry x="162" y="91" width="17" height="18" as="geometry" />
        </mxCell>
        <mxCell id="ZMSLtqpF6Ie2z9hWb9ZS-52" value="" style="group" parent="1" vertex="1" connectable="0">
          <mxGeometry x="644.0042857142857" y="584" width="43.485714285714266" height="21" as="geometry" />
        </mxCell>
        <mxCell id="ZMSLtqpF6Ie2z9hWb9ZS-50" style="edgeStyle=orthogonalEdgeStyle;rounded=0;orthogonalLoop=1;jettySize=auto;html=1;fontColor=#000000;" parent="ZMSLtqpF6Ie2z9hWb9ZS-52" edge="1">
          <mxGeometry relative="1" as="geometry">
            <mxPoint y="21" as="sourcePoint" />
            <mxPoint x="43.485714285714266" y="21" as="targetPoint" />
          </mxGeometry>
        </mxCell>
        <mxCell id="ZMSLtqpF6Ie2z9hWb9ZS-51" value="True" style="text;html=1;align=center;verticalAlign=middle;resizable=0;points=[];autosize=1;strokeColor=none;fillColor=none;fontColor=#000000;" parent="ZMSLtqpF6Ie2z9hWb9ZS-52" vertex="1">
          <mxGeometry x="1.4857142857142662" width="34" height="18" as="geometry" />
        </mxCell>
        <mxCell id="ZMSLtqpF6Ie2z9hWb9ZS-61" value="" style="group" parent="1" vertex="1" connectable="0">
          <mxGeometry x="647" y="617" width="31" height="23" as="geometry" />
        </mxCell>
        <mxCell id="ZMSLtqpF6Ie2z9hWb9ZS-58" style="edgeStyle=orthogonalEdgeStyle;rounded=0;orthogonalLoop=1;jettySize=auto;html=1;fontColor=#FF0000;strokeColor=#FF3333;" parent="ZMSLtqpF6Ie2z9hWb9ZS-61" edge="1">
          <mxGeometry relative="1" as="geometry">
            <mxPoint x="40" y="23" as="targetPoint" />
            <mxPoint x="-2" y="23" as="sourcePoint" />
            <Array as="points">
              <mxPoint x="30" y="23" />
            </Array>
          </mxGeometry>
        </mxCell>
        <mxCell id="ZMSLtqpF6Ie2z9hWb9ZS-57" value="Anti" style="text;html=1;align=center;verticalAlign=middle;resizable=0;points=[];autosize=1;strokeColor=none;fillColor=none;fontColor=#FF0000;" parent="ZMSLtqpF6Ie2z9hWb9ZS-61" vertex="1">
          <mxGeometry width="31" height="18" as="geometry" />
        </mxCell>
        <mxCell id="ZMSLtqpF6Ie2z9hWb9ZS-62" value="&lt;font&gt;1&lt;/font&gt;" style="text;html=1;align=center;verticalAlign=middle;resizable=0;points=[];autosize=1;strokeColor=none;fillColor=none;fontColor=#3399FF;" parent="1" vertex="1">
          <mxGeometry x="454" y="739" width="17" height="17" as="geometry" />
        </mxCell>
        <mxCell id="ZMSLtqpF6Ie2z9hWb9ZS-63" value="4" style="text;html=1;align=center;verticalAlign=middle;resizable=0;points=[];autosize=1;strokeColor=none;fillColor=none;fontColor=#3399FF;" parent="1" vertex="1">
          <mxGeometry x="457" y="684" width="17" height="17" as="geometry" />
        </mxCell>
        <mxCell id="ZMSLtqpF6Ie2z9hWb9ZS-64" value="7" style="text;html=1;align=center;verticalAlign=middle;resizable=0;points=[];autosize=1;strokeColor=none;fillColor=none;fontColor=#3399FF;" parent="1" vertex="1">
          <mxGeometry x="454" y="634" width="17" height="17" as="geometry" />
        </mxCell>
        <mxCell id="ZMSLtqpF6Ie2z9hWb9ZS-65" value="10" style="text;html=1;align=center;verticalAlign=middle;resizable=0;points=[];autosize=1;strokeColor=none;fillColor=none;fontColor=#3399FF;" parent="1" vertex="1">
          <mxGeometry x="451" y="582" width="23" height="17" as="geometry" />
        </mxCell>
        <mxCell id="ZMSLtqpF6Ie2z9hWb9ZS-66" value="11" style="text;html=1;align=center;verticalAlign=middle;resizable=0;points=[];autosize=1;strokeColor=none;fillColor=none;fontColor=#3399FF;" parent="1" vertex="1">
          <mxGeometry x="452" y="530" width="22" height="17" as="geometry" />
        </mxCell>
        <mxCell id="ZMSLtqpF6Ie2z9hWb9ZS-67" value="14" style="text;html=1;align=center;verticalAlign=middle;resizable=0;points=[];autosize=1;strokeColor=none;fillColor=none;fontColor=#3399FF;" parent="1" vertex="1">
          <mxGeometry x="622" y="488" width="23" height="17" as="geometry" />
        </mxCell>
        <mxCell id="ZMSLtqpF6Ie2z9hWb9ZS-68" value="17" style="text;html=1;align=center;verticalAlign=middle;resizable=0;points=[];autosize=1;strokeColor=none;fillColor=none;fontColor=#3399FF;" parent="1" vertex="1">
          <mxGeometry x="622" y="444" width="23" height="17" as="geometry" />
        </mxCell>
        <mxCell id="ZMSLtqpF6Ie2z9hWb9ZS-69" value="18" style="text;html=1;align=center;verticalAlign=middle;resizable=0;points=[];autosize=1;strokeColor=none;fillColor=none;fontColor=#3399FF;" parent="1" vertex="1">
          <mxGeometry x="594" y="378" width="23" height="17" as="geometry" />
        </mxCell>
        <mxCell id="ZMSLtqpF6Ie2z9hWb9ZS-70" value="19" style="text;html=1;align=center;verticalAlign=middle;resizable=0;points=[];autosize=1;strokeColor=none;fillColor=none;fontColor=#3399FF;" parent="1" vertex="1">
          <mxGeometry x="662" y="364" width="23" height="17" as="geometry" />
        </mxCell>
        <mxCell id="ZMSLtqpF6Ie2z9hWb9ZS-71" value="21" style="text;html=1;align=center;verticalAlign=middle;resizable=0;points=[];autosize=1;strokeColor=none;fillColor=none;fontColor=#3399FF;" parent="1" vertex="1">
          <mxGeometry x="571" y="354" width="23" height="17" as="geometry" />
        </mxCell>
        <mxCell id="ZMSLtqpF6Ie2z9hWb9ZS-72" value="21" style="text;html=1;align=center;verticalAlign=middle;resizable=0;points=[];autosize=1;strokeColor=none;fillColor=none;fontColor=#3399FF;" parent="1" vertex="1">
          <mxGeometry x="571" y="354" width="23" height="17" as="geometry" />
        </mxCell>
        <mxCell id="ZMSLtqpF6Ie2z9hWb9ZS-73" value="24" style="text;html=1;align=center;verticalAlign=middle;resizable=0;points=[];autosize=1;strokeColor=none;fillColor=none;fontColor=#3399FF;" parent="1" vertex="1">
          <mxGeometry x="572" y="303" width="23" height="17" as="geometry" />
        </mxCell>
        <mxCell id="ZMSLtqpF6Ie2z9hWb9ZS-74" value="25" style="text;html=1;align=center;verticalAlign=middle;resizable=0;points=[];autosize=1;strokeColor=none;fillColor=none;fontColor=#3399FF;" parent="1" vertex="1">
          <mxGeometry x="552" y="241" width="23" height="17" as="geometry" />
        </mxCell>
        <mxCell id="ZMSLtqpF6Ie2z9hWb9ZS-75" value="26" style="text;html=1;align=center;verticalAlign=middle;resizable=0;points=[];autosize=1;strokeColor=none;fillColor=none;fontColor=#3399FF;" parent="1" vertex="1">
          <mxGeometry x="526" y="191" width="23" height="17" as="geometry" />
        </mxCell>
        <mxCell id="ZMSLtqpF6Ie2z9hWb9ZS-76" value="28" style="text;html=1;align=center;verticalAlign=middle;resizable=0;points=[];autosize=1;strokeColor=none;fillColor=none;fontColor=#3399FF;" parent="1" vertex="1">
          <mxGeometry x="616" y="213" width="23" height="17" as="geometry" />
        </mxCell>
        <mxCell id="ZMSLtqpF6Ie2z9hWb9ZS-77" value="31" style="text;html=1;align=center;verticalAlign=middle;resizable=0;points=[];autosize=1;strokeColor=none;fillColor=none;fontColor=#3399FF;" parent="1" vertex="1">
          <mxGeometry x="591" y="142" width="23" height="17" as="geometry" />
        </mxCell>
        <mxCell id="ZMSLtqpF6Ie2z9hWb9ZS-78" value="32" style="text;html=1;align=center;verticalAlign=middle;resizable=0;points=[];autosize=1;strokeColor=none;fillColor=none;fontColor=#3399FF;" parent="1" vertex="1">
          <mxGeometry x="662" y="109.5" width="23" height="17" as="geometry" />
        </mxCell>
        <mxCell id="ZMSLtqpF6Ie2z9hWb9ZS-79" value="34" style="text;html=1;align=center;verticalAlign=middle;resizable=0;points=[];autosize=1;strokeColor=none;fillColor=none;fontColor=#3399FF;" parent="1" vertex="1">
          <mxGeometry x="375" y="82" width="23" height="17" as="geometry" />
        </mxCell>
        <mxCell id="ZMSLtqpF6Ie2z9hWb9ZS-80" value="14" style="text;html=1;align=center;verticalAlign=middle;resizable=0;points=[];autosize=1;strokeColor=none;fillColor=none;fontColor=#3399FF;" parent="1" vertex="1">
          <mxGeometry x="277" y="477.5" width="23" height="17" as="geometry" />
        </mxCell>
        <mxCell id="ZMSLtqpF6Ie2z9hWb9ZS-81" value="17" style="text;html=1;align=center;verticalAlign=middle;resizable=0;points=[];autosize=1;strokeColor=none;fillColor=none;fontColor=#3399FF;" parent="1" vertex="1">
          <mxGeometry x="277" y="427" width="23" height="17" as="geometry" />
        </mxCell>
        <mxCell id="ZMSLtqpF6Ie2z9hWb9ZS-82" value="19" style="text;html=1;align=center;verticalAlign=middle;resizable=0;points=[];autosize=1;strokeColor=none;fillColor=none;fontColor=#3399FF;" parent="1" vertex="1">
          <mxGeometry x="252" y="360.5" width="23" height="17" as="geometry" />
        </mxCell>
        <mxCell id="ZMSLtqpF6Ie2z9hWb9ZS-83" value="20" style="text;html=1;align=center;verticalAlign=middle;resizable=0;points=[];autosize=1;strokeColor=none;fillColor=none;fontColor=#3399FF;" parent="1" vertex="1">
          <mxGeometry x="327" y="327" width="23" height="17" as="geometry" />
        </mxCell>
        <mxCell id="ZMSLtqpF6Ie2z9hWb9ZS-84" value="22" style="text;html=1;align=center;verticalAlign=middle;resizable=0;points=[];autosize=1;strokeColor=none;fillColor=none;fontColor=#3399FF;" parent="1" vertex="1">
          <mxGeometry x="187" y="340" width="23" height="17" as="geometry" />
        </mxCell>
        <mxCell id="ZMSLtqpF6Ie2z9hWb9ZS-85" value="25" style="text;html=1;align=center;verticalAlign=middle;resizable=0;points=[];autosize=1;strokeColor=none;fillColor=none;fontColor=#3399FF;" parent="1" vertex="1">
          <mxGeometry x="229" y="293" width="23" height="17" as="geometry" />
        </mxCell>
        <mxCell id="ZMSLtqpF6Ie2z9hWb9ZS-86" value="27" style="text;html=1;align=center;verticalAlign=middle;resizable=0;points=[];autosize=1;strokeColor=none;fillColor=none;fontColor=#3399FF;" parent="1" vertex="1">
          <mxGeometry x="205.5" y="219" width="23" height="17" as="geometry" />
        </mxCell>
        <mxCell id="ZMSLtqpF6Ie2z9hWb9ZS-87" value="28" style="text;html=1;align=center;verticalAlign=middle;resizable=0;points=[];autosize=1;strokeColor=none;fillColor=none;fontColor=#3399FF;" parent="1" vertex="1">
          <mxGeometry x="300" y="197" width="23" height="17" as="geometry" />
        </mxCell>
        <mxCell id="ZMSLtqpF6Ie2z9hWb9ZS-88" value="30" style="text;html=1;align=center;verticalAlign=middle;resizable=0;points=[];autosize=1;strokeColor=none;fillColor=none;fontColor=#3399FF;" parent="1" vertex="1">
          <mxGeometry x="136" y="197" width="23" height="17" as="geometry" />
        </mxCell>
        <mxCell id="ZMSLtqpF6Ie2z9hWb9ZS-89" value="33" style="text;html=1;align=center;verticalAlign=middle;resizable=0;points=[];autosize=1;strokeColor=none;fillColor=none;fontColor=#3399FF;" parent="1" vertex="1">
          <mxGeometry x="136" y="142" width="23" height="17" as="geometry" />
        </mxCell>
        <mxCell id="ZMSLtqpF6Ie2z9hWb9ZS-90" value="34" style="text;html=1;align=center;verticalAlign=middle;resizable=0;points=[];autosize=1;strokeColor=none;fillColor=none;fontColor=#3399FF;" parent="1" vertex="1">
          <mxGeometry x="132" y="87" width="23" height="17" as="geometry" />
        </mxCell>
        <mxCell id="8L7VZlXEO1l-5EI4W1nw-1" value="bb" style="text;html=1;align=center;verticalAlign=middle;resizable=0;points=[];autosize=1;strokeColor=#9673a6;fillColor=#e1d5e7;" vertex="1" parent="1">
          <mxGeometry x="1424" y="1722" width="23" height="18" as="geometry" />
        </mxCell>
        <mxCell id="8L7VZlXEO1l-5EI4W1nw-2" style="edgeStyle=orthogonalEdgeStyle;rounded=0;orthogonalLoop=1;jettySize=auto;html=1;" edge="1" parent="1" source="8L7VZlXEO1l-5EI4W1nw-3" target="8L7VZlXEO1l-5EI4W1nw-1">
          <mxGeometry relative="1" as="geometry" />
        </mxCell>
        <mxCell id="8L7VZlXEO1l-5EI4W1nw-3" value="aa" style="text;html=1;align=center;verticalAlign=middle;resizable=0;points=[];autosize=1;strokeColor=#9673a6;fillColor=#e1d5e7;" vertex="1" parent="1">
          <mxGeometry x="1424" y="1665" width="23" height="18" as="geometry" />
        </mxCell>
        <mxCell id="8L7VZlXEO1l-5EI4W1nw-4" style="edgeStyle=orthogonalEdgeStyle;rounded=0;orthogonalLoop=1;jettySize=auto;html=1;" edge="1" parent="1" source="8L7VZlXEO1l-5EI4W1nw-5" target="8L7VZlXEO1l-5EI4W1nw-3">
          <mxGeometry relative="1" as="geometry" />
        </mxCell>
        <mxCell id="8L7VZlXEO1l-5EI4W1nw-5" value="z" style="text;html=1;align=center;verticalAlign=middle;resizable=0;points=[];autosize=1;strokeColor=#9673a6;fillColor=#e1d5e7;" vertex="1" parent="1">
          <mxGeometry x="1427.5" y="1615" width="16" height="18" as="geometry" />
        </mxCell>
        <mxCell id="8L7VZlXEO1l-5EI4W1nw-6" style="edgeStyle=orthogonalEdgeStyle;rounded=0;orthogonalLoop=1;jettySize=auto;html=1;" edge="1" parent="1" source="8L7VZlXEO1l-5EI4W1nw-7" target="8L7VZlXEO1l-5EI4W1nw-5">
          <mxGeometry relative="1" as="geometry" />
        </mxCell>
        <mxCell id="8L7VZlXEO1l-5EI4W1nw-7" value="y" style="text;html=1;align=center;verticalAlign=middle;resizable=0;points=[];autosize=1;strokeColor=#9673a6;fillColor=#e1d5e7;" vertex="1" parent="1">
          <mxGeometry x="1427.5" y="1563" width="16" height="18" as="geometry" />
        </mxCell>
        <mxCell id="8L7VZlXEO1l-5EI4W1nw-8" style="edgeStyle=orthogonalEdgeStyle;rounded=0;orthogonalLoop=1;jettySize=auto;html=1;" edge="1" parent="1" source="8L7VZlXEO1l-5EI4W1nw-9" target="8L7VZlXEO1l-5EI4W1nw-7">
          <mxGeometry relative="1" as="geometry" />
        </mxCell>
        <mxCell id="8L7VZlXEO1l-5EI4W1nw-9" value="x" style="text;html=1;align=center;verticalAlign=middle;resizable=0;points=[];autosize=1;strokeColor=#9673a6;fillColor=#e1d5e7;" vertex="1" parent="1">
          <mxGeometry x="1428" y="1514" width="16" height="18" as="geometry" />
        </mxCell>
        <mxCell id="8L7VZlXEO1l-5EI4W1nw-10" style="edgeStyle=orthogonalEdgeStyle;rounded=0;orthogonalLoop=1;jettySize=auto;html=1;" edge="1" parent="1" source="8L7VZlXEO1l-5EI4W1nw-11" target="8L7VZlXEO1l-5EI4W1nw-9">
          <mxGeometry relative="1" as="geometry">
            <Array as="points">
              <mxPoint x="1601" y="1502" />
              <mxPoint x="1436" y="1502" />
            </Array>
          </mxGeometry>
        </mxCell>
        <mxCell id="8L7VZlXEO1l-5EI4W1nw-11" value="v" style="text;html=1;align=center;verticalAlign=middle;resizable=0;points=[];autosize=1;strokeColor=#9673a6;fillColor=#e1d5e7;" vertex="1" parent="1">
          <mxGeometry x="1593" y="1469" width="16" height="18" as="geometry" />
        </mxCell>
        <mxCell id="8L7VZlXEO1l-5EI4W1nw-12" style="edgeStyle=orthogonalEdgeStyle;rounded=1;orthogonalLoop=1;jettySize=auto;html=1;entryX=0.631;entryY=0.09;entryDx=0;entryDy=0;entryPerimeter=0;" edge="1" parent="1" source="8L7VZlXEO1l-5EI4W1nw-13" target="8L7VZlXEO1l-5EI4W1nw-11">
          <mxGeometry relative="1" as="geometry" />
        </mxCell>
        <mxCell id="8L7VZlXEO1l-5EI4W1nw-13" value="m" style="text;html=1;align=center;verticalAlign=middle;resizable=0;points=[];autosize=1;strokeColor=#9673a6;fillColor=#e1d5e7;" vertex="1" parent="1">
          <mxGeometry x="1593" y="1425" width="20" height="18" as="geometry" />
        </mxCell>
        <mxCell id="8L7VZlXEO1l-5EI4W1nw-14" style="edgeStyle=orthogonalEdgeStyle;rounded=1;orthogonalLoop=1;jettySize=auto;html=1;" edge="1" parent="1" source="8L7VZlXEO1l-5EI4W1nw-15" target="8L7VZlXEO1l-5EI4W1nw-13">
          <mxGeometry relative="1" as="geometry" />
        </mxCell>
        <mxCell id="8L7VZlXEO1l-5EI4W1nw-15" value="L" style="text;html=1;align=center;verticalAlign=middle;resizable=0;points=[];autosize=1;strokeColor=#9673a6;fillColor=#e1d5e7;" vertex="1" parent="1">
          <mxGeometry x="1594.5" y="1382" width="17" height="18" as="geometry" />
        </mxCell>
        <mxCell id="8L7VZlXEO1l-5EI4W1nw-16" style="edgeStyle=orthogonalEdgeStyle;rounded=0;orthogonalLoop=1;jettySize=auto;html=1;entryX=-0.013;entryY=0.517;entryDx=0;entryDy=0;entryPerimeter=0;" edge="1" parent="1" source="8L7VZlXEO1l-5EI4W1nw-17" target="8L7VZlXEO1l-5EI4W1nw-15">
          <mxGeometry relative="1" as="geometry">
            <Array as="points">
              <mxPoint x="1562" y="1391" />
            </Array>
          </mxGeometry>
        </mxCell>
        <mxCell id="8L7VZlXEO1l-5EI4W1nw-17" value="j" style="text;html=1;align=center;verticalAlign=middle;resizable=0;points=[];autosize=1;strokeColor=#9673a6;fillColor=#e1d5e7;" vertex="1" parent="1">
          <mxGeometry x="1556" y="1341" width="13" height="18" as="geometry" />
        </mxCell>
        <mxCell id="8L7VZlXEO1l-5EI4W1nw-18" style="edgeStyle=orthogonalEdgeStyle;rounded=0;orthogonalLoop=1;jettySize=auto;html=1;" edge="1" parent="1" source="8L7VZlXEO1l-5EI4W1nw-19" target="8L7VZlXEO1l-5EI4W1nw-17">
          <mxGeometry relative="1" as="geometry" />
        </mxCell>
        <mxCell id="8L7VZlXEO1l-5EI4W1nw-19" value="i" style="text;html=1;align=center;verticalAlign=middle;resizable=0;points=[];autosize=1;strokeColor=#9673a6;fillColor=#e1d5e7;" vertex="1" parent="1">
          <mxGeometry x="1556" y="1286" width="13" height="18" as="geometry" />
        </mxCell>
        <mxCell id="8L7VZlXEO1l-5EI4W1nw-20" style="edgeStyle=orthogonalEdgeStyle;rounded=0;orthogonalLoop=1;jettySize=auto;html=1;" edge="1" parent="1" source="8L7VZlXEO1l-5EI4W1nw-21" target="8L7VZlXEO1l-5EI4W1nw-19">
          <mxGeometry relative="1" as="geometry" />
        </mxCell>
        <mxCell id="8L7VZlXEO1l-5EI4W1nw-21" value="h" style="text;html=1;align=center;verticalAlign=middle;resizable=0;points=[];autosize=1;strokeColor=#9673a6;fillColor=#e1d5e7;" vertex="1" parent="1">
          <mxGeometry x="1554" y="1244" width="17" height="18" as="geometry" />
        </mxCell>
        <mxCell id="8L7VZlXEO1l-5EI4W1nw-22" style="edgeStyle=orthogonalEdgeStyle;rounded=0;orthogonalLoop=1;jettySize=auto;html=1;entryX=-0.025;entryY=0.46;entryDx=0;entryDy=0;entryPerimeter=0;" edge="1" parent="1" source="8L7VZlXEO1l-5EI4W1nw-23" target="8L7VZlXEO1l-5EI4W1nw-21">
          <mxGeometry relative="1" as="geometry">
            <Array as="points">
              <mxPoint x="1534" y="1252" />
            </Array>
          </mxGeometry>
        </mxCell>
        <mxCell id="8L7VZlXEO1l-5EI4W1nw-23" value="f" style="text;html=1;align=center;verticalAlign=middle;resizable=0;points=[];autosize=1;strokeColor=#9673a6;fillColor=#e1d5e7;" vertex="1" parent="1">
          <mxGeometry x="1528" y="1193" width="13" height="18" as="geometry" />
        </mxCell>
        <mxCell id="8L7VZlXEO1l-5EI4W1nw-24" style="edgeStyle=orthogonalEdgeStyle;rounded=0;orthogonalLoop=1;jettySize=auto;html=1;entryX=1.05;entryY=0.46;entryDx=0;entryDy=0;entryPerimeter=0;" edge="1" parent="1" source="8L7VZlXEO1l-5EI4W1nw-25" target="8L7VZlXEO1l-5EI4W1nw-21">
          <mxGeometry relative="1" as="geometry">
            <Array as="points">
              <mxPoint x="1602" y="1252" />
            </Array>
          </mxGeometry>
        </mxCell>
        <mxCell id="8L7VZlXEO1l-5EI4W1nw-25" value="g" style="text;html=1;align=center;verticalAlign=middle;resizable=0;points=[];autosize=1;strokeColor=#9673a6;fillColor=#e1d5e7;" vertex="1" parent="1">
          <mxGeometry x="1593" y="1193" width="17" height="18" as="geometry" />
        </mxCell>
        <mxCell id="8L7VZlXEO1l-5EI4W1nw-26" style="edgeStyle=orthogonalEdgeStyle;rounded=0;orthogonalLoop=1;jettySize=auto;html=1;" edge="1" parent="1" source="8L7VZlXEO1l-5EI4W1nw-27" target="8L7VZlXEO1l-5EI4W1nw-25">
          <mxGeometry relative="1" as="geometry" />
        </mxCell>
        <mxCell id="8L7VZlXEO1l-5EI4W1nw-27" value="c" style="text;html=1;align=center;verticalAlign=middle;resizable=0;points=[];autosize=1;strokeColor=#9673a6;fillColor=#e1d5e7;" vertex="1" parent="1">
          <mxGeometry x="1593.5" y="1145" width="16" height="18" as="geometry" />
        </mxCell>
        <mxCell id="8L7VZlXEO1l-5EI4W1nw-28" style="edgeStyle=orthogonalEdgeStyle;rounded=0;orthogonalLoop=1;jettySize=auto;html=1;" edge="1" parent="1" source="8L7VZlXEO1l-5EI4W1nw-29">
          <mxGeometry relative="1" as="geometry">
            <mxPoint x="1612" y="1152" as="targetPoint" />
            <Array as="points">
              <mxPoint x="1644" y="1152" />
            </Array>
          </mxGeometry>
        </mxCell>
        <mxCell id="8L7VZlXEO1l-5EI4W1nw-29" value="b" style="text;html=1;align=center;verticalAlign=middle;resizable=0;points=[];autosize=1;strokeColor=#9673a6;fillColor=#e1d5e7;" vertex="1" parent="1">
          <mxGeometry x="1635.85" y="1090" width="17" height="18" as="geometry" />
        </mxCell>
        <mxCell id="8L7VZlXEO1l-5EI4W1nw-30" style="edgeStyle=orthogonalEdgeStyle;rounded=0;orthogonalLoop=1;jettySize=auto;html=1;" edge="1" parent="1">
          <mxGeometry relative="1" as="geometry">
            <mxPoint x="1483" y="1091" as="sourcePoint" />
            <mxPoint x="1592" y="1155" as="targetPoint" />
            <Array as="points">
              <mxPoint x="1483" y="1091" />
              <mxPoint x="1483" y="1155" />
            </Array>
          </mxGeometry>
        </mxCell>
        <mxCell id="8L7VZlXEO1l-5EI4W1nw-31" style="edgeStyle=orthogonalEdgeStyle;rounded=0;orthogonalLoop=1;jettySize=auto;html=1;entryX=1.028;entryY=0.423;entryDx=0;entryDy=0;entryPerimeter=0;fontColor=#000000;" edge="1" parent="1" source="8L7VZlXEO1l-5EI4W1nw-32" target="8L7VZlXEO1l-5EI4W1nw-55">
          <mxGeometry relative="1" as="geometry">
            <Array as="points">
              <mxPoint x="1365" y="1084" />
              <mxPoint x="1365" y="1131" />
            </Array>
          </mxGeometry>
        </mxCell>
        <mxCell id="8L7VZlXEO1l-5EI4W1nw-32" value="a" style="text;html=1;align=center;verticalAlign=middle;resizable=0;points=[];autosize=1;strokeColor=#9673a6;fillColor=#e1d5e7;" vertex="1" parent="1">
          <mxGeometry x="1475" y="1075" width="17" height="18" as="geometry" />
        </mxCell>
        <mxCell id="8L7VZlXEO1l-5EI4W1nw-33" style="edgeStyle=orthogonalEdgeStyle;rounded=0;orthogonalLoop=1;jettySize=auto;html=1;entryX=1.055;entryY=0.54;entryDx=0;entryDy=0;entryPerimeter=0;" edge="1" parent="1" source="8L7VZlXEO1l-5EI4W1nw-34" target="8L7VZlXEO1l-5EI4W1nw-15">
          <mxGeometry relative="1" as="geometry">
            <Array as="points">
              <mxPoint x="1646" y="1392" />
            </Array>
          </mxGeometry>
        </mxCell>
        <mxCell id="8L7VZlXEO1l-5EI4W1nw-34" value="k" style="text;html=1;align=center;verticalAlign=middle;resizable=0;points=[];autosize=1;strokeColor=#9673a6;fillColor=#e1d5e7;" vertex="1" parent="1">
          <mxGeometry x="1638" y="1341" width="16" height="18" as="geometry" />
        </mxCell>
        <mxCell id="8L7VZlXEO1l-5EI4W1nw-35" style="edgeStyle=orthogonalEdgeStyle;rounded=0;orthogonalLoop=1;jettySize=auto;html=1;fontColor=#000000;" edge="1" parent="1" source="8L7VZlXEO1l-5EI4W1nw-36" target="8L7VZlXEO1l-5EI4W1nw-9">
          <mxGeometry relative="1" as="geometry">
            <Array as="points">
              <mxPoint x="1262" y="1501" />
              <mxPoint x="1436" y="1501" />
            </Array>
          </mxGeometry>
        </mxCell>
        <mxCell id="8L7VZlXEO1l-5EI4W1nw-36" value="w" style="text;html=1;align=center;verticalAlign=middle;resizable=0;points=[];autosize=1;strokeColor=#9673a6;fillColor=#e1d5e7;" vertex="1" parent="1">
          <mxGeometry x="1253" y="1458" width="19" height="18" as="geometry" />
        </mxCell>
        <mxCell id="8L7VZlXEO1l-5EI4W1nw-37" style="edgeStyle=orthogonalEdgeStyle;rounded=0;orthogonalLoop=1;jettySize=auto;html=1;entryX=0.481;entryY=0.063;entryDx=0;entryDy=0;entryPerimeter=0;fontColor=#000000;" edge="1" parent="1" source="8L7VZlXEO1l-5EI4W1nw-38" target="8L7VZlXEO1l-5EI4W1nw-36">
          <mxGeometry relative="1" as="geometry" />
        </mxCell>
        <mxCell id="8L7VZlXEO1l-5EI4W1nw-38" value="u" style="text;html=1;align=center;verticalAlign=middle;resizable=0;points=[];autosize=1;strokeColor=#9673a6;fillColor=#e1d5e7;" vertex="1" parent="1">
          <mxGeometry x="1253" y="1408" width="17" height="18" as="geometry" />
        </mxCell>
        <mxCell id="8L7VZlXEO1l-5EI4W1nw-39" style="edgeStyle=orthogonalEdgeStyle;rounded=0;orthogonalLoop=1;jettySize=auto;html=1;entryX=0.538;entryY=-0.079;entryDx=0;entryDy=0;entryPerimeter=0;fontColor=#000000;" edge="1" parent="1" source="8L7VZlXEO1l-5EI4W1nw-40" target="8L7VZlXEO1l-5EI4W1nw-38">
          <mxGeometry relative="1" as="geometry" />
        </mxCell>
        <mxCell id="8L7VZlXEO1l-5EI4W1nw-40" value="t" style="text;html=1;align=center;verticalAlign=middle;resizable=0;points=[];autosize=1;strokeColor=#9673a6;fillColor=#e1d5e7;" vertex="1" parent="1">
          <mxGeometry x="1256" y="1362" width="13" height="18" as="geometry" />
        </mxCell>
        <mxCell id="8L7VZlXEO1l-5EI4W1nw-41" style="edgeStyle=orthogonalEdgeStyle;rounded=0;orthogonalLoop=1;jettySize=auto;html=1;entryX=1.044;entryY=0.571;entryDx=0;entryDy=0;entryPerimeter=0;fontColor=#000000;" edge="1" parent="1" source="8L7VZlXEO1l-5EI4W1nw-42" target="8L7VZlXEO1l-5EI4W1nw-40">
          <mxGeometry relative="1" as="geometry">
            <Array as="points">
              <mxPoint x="1334" y="1372" />
            </Array>
          </mxGeometry>
        </mxCell>
        <mxCell id="8L7VZlXEO1l-5EI4W1nw-42" value="s" style="text;html=1;align=center;verticalAlign=middle;resizable=0;points=[];autosize=1;strokeColor=#9673a6;fillColor=#e1d5e7;" vertex="1" parent="1">
          <mxGeometry x="1326" y="1330" width="16" height="18" as="geometry" />
        </mxCell>
        <mxCell id="8L7VZlXEO1l-5EI4W1nw-43" style="edgeStyle=orthogonalEdgeStyle;rounded=0;orthogonalLoop=1;jettySize=auto;html=1;entryX=-0.011;entryY=0.54;entryDx=0;entryDy=0;entryPerimeter=0;fontColor=#000000;" edge="1" parent="1" source="8L7VZlXEO1l-5EI4W1nw-44" target="8L7VZlXEO1l-5EI4W1nw-40">
          <mxGeometry relative="1" as="geometry">
            <Array as="points">
              <mxPoint x="1216" y="1372" />
            </Array>
          </mxGeometry>
        </mxCell>
        <mxCell id="8L7VZlXEO1l-5EI4W1nw-44" value="r" style="text;html=1;align=center;verticalAlign=middle;resizable=0;points=[];autosize=1;strokeColor=#9673a6;fillColor=#e1d5e7;" vertex="1" parent="1">
          <mxGeometry x="1209" y="1321" width="14" height="18" as="geometry" />
        </mxCell>
        <mxCell id="8L7VZlXEO1l-5EI4W1nw-45" style="edgeStyle=orthogonalEdgeStyle;rounded=0;orthogonalLoop=1;jettySize=auto;html=1;fontColor=#000000;" edge="1" parent="1" source="8L7VZlXEO1l-5EI4W1nw-46" target="8L7VZlXEO1l-5EI4W1nw-44">
          <mxGeometry relative="1" as="geometry" />
        </mxCell>
        <mxCell id="8L7VZlXEO1l-5EI4W1nw-46" value="q" style="text;html=1;align=center;verticalAlign=middle;resizable=0;points=[];autosize=1;strokeColor=#9673a6;fillColor=#e1d5e7;" vertex="1" parent="1">
          <mxGeometry x="1208" y="1273" width="17" height="18" as="geometry" />
        </mxCell>
        <mxCell id="8L7VZlXEO1l-5EI4W1nw-47" style="edgeStyle=orthogonalEdgeStyle;rounded=0;orthogonalLoop=1;jettySize=auto;html=1;entryX=0.529;entryY=-0.071;entryDx=0;entryDy=0;entryPerimeter=0;fontColor=#000000;" edge="1" parent="1" source="8L7VZlXEO1l-5EI4W1nw-48" target="8L7VZlXEO1l-5EI4W1nw-46">
          <mxGeometry relative="1" as="geometry" />
        </mxCell>
        <mxCell id="8L7VZlXEO1l-5EI4W1nw-48" value="p" style="text;html=1;align=center;verticalAlign=middle;resizable=0;points=[];autosize=1;strokeColor=#9673a6;fillColor=#e1d5e7;" vertex="1" parent="1">
          <mxGeometry x="1209" y="1222" width="17" height="18" as="geometry" />
        </mxCell>
        <mxCell id="8L7VZlXEO1l-5EI4W1nw-49" style="edgeStyle=orthogonalEdgeStyle;rounded=0;orthogonalLoop=1;jettySize=auto;html=1;entryX=1.042;entryY=0.54;entryDx=0;entryDy=0;entryPerimeter=0;fontColor=#000000;" edge="1" parent="1" source="8L7VZlXEO1l-5EI4W1nw-50" target="8L7VZlXEO1l-5EI4W1nw-48">
          <mxGeometry relative="1" as="geometry">
            <Array as="points">
              <mxPoint x="1284" y="1232" />
            </Array>
          </mxGeometry>
        </mxCell>
        <mxCell id="8L7VZlXEO1l-5EI4W1nw-50" value="o" style="text;html=1;align=center;verticalAlign=middle;resizable=0;points=[];autosize=1;strokeColor=#9673a6;fillColor=#e1d5e7;" vertex="1" parent="1">
          <mxGeometry x="1276" y="1182" width="17" height="18" as="geometry" />
        </mxCell>
        <mxCell id="8L7VZlXEO1l-5EI4W1nw-51" style="edgeStyle=orthogonalEdgeStyle;rounded=0;orthogonalLoop=1;jettySize=auto;html=1;entryX=-0.034;entryY=0.508;entryDx=0;entryDy=0;entryPerimeter=0;fontColor=#000000;" edge="1" parent="1" source="8L7VZlXEO1l-5EI4W1nw-52" target="8L7VZlXEO1l-5EI4W1nw-48">
          <mxGeometry relative="1" as="geometry">
            <Array as="points">
              <mxPoint x="1172" y="1231" />
            </Array>
          </mxGeometry>
        </mxCell>
        <mxCell id="8L7VZlXEO1l-5EI4W1nw-52" value="n" style="text;html=1;align=center;verticalAlign=middle;resizable=0;points=[];autosize=1;strokeColor=#9673a6;fillColor=#e1d5e7;" vertex="1" parent="1">
          <mxGeometry x="1163" y="1178" width="17" height="18" as="geometry" />
        </mxCell>
        <mxCell id="8L7VZlXEO1l-5EI4W1nw-53" style="edgeStyle=orthogonalEdgeStyle;rounded=0;orthogonalLoop=1;jettySize=auto;html=1;fontColor=#000000;" edge="1" parent="1" source="8L7VZlXEO1l-5EI4W1nw-55" target="8L7VZlXEO1l-5EI4W1nw-52">
          <mxGeometry relative="1" as="geometry" />
        </mxCell>
        <mxCell id="8L7VZlXEO1l-5EI4W1nw-54" style="edgeStyle=orthogonalEdgeStyle;orthogonalLoop=1;jettySize=auto;html=1;entryX=-0.08;entryY=0.42;entryDx=0;entryDy=0;entryPerimeter=0;fontColor=#FF0000;strokeColor=#FF3333;curved=1;" edge="1" parent="1" source="8L7VZlXEO1l-5EI4W1nw-55" target="8L7VZlXEO1l-5EI4W1nw-17">
          <mxGeometry relative="1" as="geometry" />
        </mxCell>
        <mxCell id="8L7VZlXEO1l-5EI4W1nw-55" value="e" style="text;html=1;align=center;verticalAlign=middle;resizable=0;points=[];autosize=1;strokeColor=#9673a6;fillColor=#e1d5e7;" vertex="1" parent="1">
          <mxGeometry x="1163" y="1123" width="17" height="18" as="geometry" />
        </mxCell>
        <mxCell id="8L7VZlXEO1l-5EI4W1nw-56" style="edgeStyle=orthogonalEdgeStyle;rounded=0;orthogonalLoop=1;jettySize=auto;html=1;entryX=0.353;entryY=0.071;entryDx=0;entryDy=0;entryPerimeter=0;fontColor=#000000;" edge="1" parent="1" source="8L7VZlXEO1l-5EI4W1nw-57" target="8L7VZlXEO1l-5EI4W1nw-55">
          <mxGeometry relative="1" as="geometry" />
        </mxCell>
        <mxCell id="8L7VZlXEO1l-5EI4W1nw-57" value="d" style="text;html=1;align=center;verticalAlign=middle;resizable=0;points=[];autosize=1;strokeColor=#9673a6;fillColor=#e1d5e7;" vertex="1" parent="1">
          <mxGeometry x="1161" y="1072" width="17" height="18" as="geometry" />
        </mxCell>
        <mxCell id="8L7VZlXEO1l-5EI4W1nw-58" value="" style="group" vertex="1" connectable="0" parent="1">
          <mxGeometry x="1643.0042857142857" y="1565" width="43.485714285714266" height="21" as="geometry" />
        </mxCell>
        <mxCell id="8L7VZlXEO1l-5EI4W1nw-59" style="edgeStyle=orthogonalEdgeStyle;rounded=0;orthogonalLoop=1;jettySize=auto;html=1;fontColor=#000000;" edge="1" parent="8L7VZlXEO1l-5EI4W1nw-58">
          <mxGeometry relative="1" as="geometry">
            <mxPoint y="21" as="sourcePoint" />
            <mxPoint x="43.485714285714266" y="21" as="targetPoint" />
          </mxGeometry>
        </mxCell>
        <mxCell id="8L7VZlXEO1l-5EI4W1nw-60" value="True" style="text;html=1;align=center;verticalAlign=middle;resizable=0;points=[];autosize=1;strokeColor=none;fillColor=none;fontColor=#000000;" vertex="1" parent="8L7VZlXEO1l-5EI4W1nw-58">
          <mxGeometry x="1.4857142857142662" width="34" height="18" as="geometry" />
        </mxCell>
        <mxCell id="8L7VZlXEO1l-5EI4W1nw-61" value="" style="group" vertex="1" connectable="0" parent="1">
          <mxGeometry x="1646" y="1598" width="31" height="23" as="geometry" />
        </mxCell>
        <mxCell id="8L7VZlXEO1l-5EI4W1nw-62" style="edgeStyle=orthogonalEdgeStyle;rounded=0;orthogonalLoop=1;jettySize=auto;html=1;fontColor=#FF0000;strokeColor=#FF3333;" edge="1" parent="8L7VZlXEO1l-5EI4W1nw-61">
          <mxGeometry relative="1" as="geometry">
            <mxPoint x="40" y="23" as="targetPoint" />
            <mxPoint x="-2" y="23" as="sourcePoint" />
            <Array as="points">
              <mxPoint x="30" y="23" />
            </Array>
          </mxGeometry>
        </mxCell>
        <mxCell id="8L7VZlXEO1l-5EI4W1nw-63" value="Anti" style="text;html=1;align=center;verticalAlign=middle;resizable=0;points=[];autosize=1;strokeColor=none;fillColor=none;fontColor=#FF0000;" vertex="1" parent="8L7VZlXEO1l-5EI4W1nw-61">
          <mxGeometry width="31" height="18" as="geometry" />
        </mxCell>
        <mxCell id="8L7VZlXEO1l-5EI4W1nw-64" value="&lt;font&gt;1&lt;/font&gt;" style="text;html=1;align=center;verticalAlign=middle;resizable=0;points=[];autosize=1;strokeColor=none;fillColor=none;fontColor=#3399FF;" vertex="1" parent="1">
          <mxGeometry x="1453" y="1720" width="17" height="17" as="geometry" />
        </mxCell>
        <mxCell id="8L7VZlXEO1l-5EI4W1nw-65" value="4" style="text;html=1;align=center;verticalAlign=middle;resizable=0;points=[];autosize=1;strokeColor=none;fillColor=none;fontColor=#3399FF;" vertex="1" parent="1">
          <mxGeometry x="1456" y="1665" width="17" height="17" as="geometry" />
        </mxCell>
        <mxCell id="8L7VZlXEO1l-5EI4W1nw-66" value="7" style="text;html=1;align=center;verticalAlign=middle;resizable=0;points=[];autosize=1;strokeColor=none;fillColor=none;fontColor=#3399FF;" vertex="1" parent="1">
          <mxGeometry x="1453" y="1615" width="17" height="17" as="geometry" />
        </mxCell>
        <mxCell id="8L7VZlXEO1l-5EI4W1nw-67" value="10" style="text;html=1;align=center;verticalAlign=middle;resizable=0;points=[];autosize=1;strokeColor=none;fillColor=none;fontColor=#3399FF;" vertex="1" parent="1">
          <mxGeometry x="1450" y="1563" width="23" height="17" as="geometry" />
        </mxCell>
        <mxCell id="8L7VZlXEO1l-5EI4W1nw-68" value="11" style="text;html=1;align=center;verticalAlign=middle;resizable=0;points=[];autosize=1;strokeColor=none;fillColor=none;fontColor=#3399FF;" vertex="1" parent="1">
          <mxGeometry x="1451" y="1511" width="22" height="17" as="geometry" />
        </mxCell>
        <mxCell id="8L7VZlXEO1l-5EI4W1nw-69" value="14" style="text;html=1;align=center;verticalAlign=middle;resizable=0;points=[];autosize=1;strokeColor=none;fillColor=none;fontColor=#3399FF;" vertex="1" parent="1">
          <mxGeometry x="1621" y="1469" width="23" height="17" as="geometry" />
        </mxCell>
        <mxCell id="8L7VZlXEO1l-5EI4W1nw-70" value="17" style="text;html=1;align=center;verticalAlign=middle;resizable=0;points=[];autosize=1;strokeColor=none;fillColor=none;fontColor=#3399FF;" vertex="1" parent="1">
          <mxGeometry x="1621" y="1425" width="23" height="17" as="geometry" />
        </mxCell>
        <mxCell id="8L7VZlXEO1l-5EI4W1nw-71" value="18" style="text;html=1;align=center;verticalAlign=middle;resizable=0;points=[];autosize=1;strokeColor=none;fillColor=none;fontColor=#3399FF;" vertex="1" parent="1">
          <mxGeometry x="1593" y="1359" width="23" height="17" as="geometry" />
        </mxCell>
        <mxCell id="8L7VZlXEO1l-5EI4W1nw-72" value="19" style="text;html=1;align=center;verticalAlign=middle;resizable=0;points=[];autosize=1;strokeColor=none;fillColor=none;fontColor=#3399FF;" vertex="1" parent="1">
          <mxGeometry x="1661" y="1345" width="23" height="17" as="geometry" />
        </mxCell>
        <mxCell id="8L7VZlXEO1l-5EI4W1nw-73" value="21" style="text;html=1;align=center;verticalAlign=middle;resizable=0;points=[];autosize=1;strokeColor=none;fillColor=none;fontColor=#3399FF;" vertex="1" parent="1">
          <mxGeometry x="1570" y="1335" width="23" height="17" as="geometry" />
        </mxCell>
        <mxCell id="8L7VZlXEO1l-5EI4W1nw-74" value="21" style="text;html=1;align=center;verticalAlign=middle;resizable=0;points=[];autosize=1;strokeColor=none;fillColor=none;fontColor=#3399FF;" vertex="1" parent="1">
          <mxGeometry x="1570" y="1335" width="23" height="17" as="geometry" />
        </mxCell>
        <mxCell id="8L7VZlXEO1l-5EI4W1nw-75" value="24" style="text;html=1;align=center;verticalAlign=middle;resizable=0;points=[];autosize=1;strokeColor=none;fillColor=none;fontColor=#3399FF;" vertex="1" parent="1">
          <mxGeometry x="1571" y="1284" width="23" height="17" as="geometry" />
        </mxCell>
        <mxCell id="8L7VZlXEO1l-5EI4W1nw-76" value="25" style="text;html=1;align=center;verticalAlign=middle;resizable=0;points=[];autosize=1;strokeColor=none;fillColor=none;fontColor=#3399FF;" vertex="1" parent="1">
          <mxGeometry x="1551" y="1222" width="23" height="17" as="geometry" />
        </mxCell>
        <mxCell id="8L7VZlXEO1l-5EI4W1nw-77" value="26" style="text;html=1;align=center;verticalAlign=middle;resizable=0;points=[];autosize=1;strokeColor=none;fillColor=none;fontColor=#3399FF;" vertex="1" parent="1">
          <mxGeometry x="1525" y="1172" width="23" height="17" as="geometry" />
        </mxCell>
        <mxCell id="8L7VZlXEO1l-5EI4W1nw-78" value="28" style="text;html=1;align=center;verticalAlign=middle;resizable=0;points=[];autosize=1;strokeColor=none;fillColor=none;fontColor=#3399FF;" vertex="1" parent="1">
          <mxGeometry x="1615" y="1194" width="23" height="17" as="geometry" />
        </mxCell>
        <mxCell id="8L7VZlXEO1l-5EI4W1nw-79" value="31" style="text;html=1;align=center;verticalAlign=middle;resizable=0;points=[];autosize=1;strokeColor=none;fillColor=none;fontColor=#3399FF;" vertex="1" parent="1">
          <mxGeometry x="1590" y="1123" width="23" height="17" as="geometry" />
        </mxCell>
        <mxCell id="8L7VZlXEO1l-5EI4W1nw-80" value="32" style="text;html=1;align=center;verticalAlign=middle;resizable=0;points=[];autosize=1;strokeColor=none;fillColor=none;fontColor=#3399FF;" vertex="1" parent="1">
          <mxGeometry x="1661" y="1090.5" width="23" height="17" as="geometry" />
        </mxCell>
        <mxCell id="8L7VZlXEO1l-5EI4W1nw-81" value="32" style="text;html=1;align=center;verticalAlign=middle;resizable=0;points=[];autosize=1;strokeColor=none;fillColor=none;fontColor=#3399FF;" vertex="1" parent="1">
          <mxGeometry x="1502" y="1072" width="23" height="17" as="geometry" />
        </mxCell>
        <mxCell id="8L7VZlXEO1l-5EI4W1nw-82" value="14" style="text;html=1;align=center;verticalAlign=middle;resizable=0;points=[];autosize=1;strokeColor=none;fillColor=none;fontColor=#3399FF;" vertex="1" parent="1">
          <mxGeometry x="1276" y="1458.5" width="23" height="17" as="geometry" />
        </mxCell>
        <mxCell id="8L7VZlXEO1l-5EI4W1nw-83" value="17" style="text;html=1;align=center;verticalAlign=middle;resizable=0;points=[];autosize=1;strokeColor=none;fillColor=none;fontColor=#3399FF;" vertex="1" parent="1">
          <mxGeometry x="1276" y="1408" width="23" height="17" as="geometry" />
        </mxCell>
        <mxCell id="8L7VZlXEO1l-5EI4W1nw-84" value="19" style="text;html=1;align=center;verticalAlign=middle;resizable=0;points=[];autosize=1;strokeColor=none;fillColor=none;fontColor=#3399FF;" vertex="1" parent="1">
          <mxGeometry x="1251" y="1341.5" width="23" height="17" as="geometry" />
        </mxCell>
        <mxCell id="8L7VZlXEO1l-5EI4W1nw-85" value="20" style="text;html=1;align=center;verticalAlign=middle;resizable=0;points=[];autosize=1;strokeColor=none;fillColor=none;fontColor=#3399FF;" vertex="1" parent="1">
          <mxGeometry x="1326" y="1308" width="23" height="17" as="geometry" />
        </mxCell>
        <mxCell id="8L7VZlXEO1l-5EI4W1nw-86" value="22" style="text;html=1;align=center;verticalAlign=middle;resizable=0;points=[];autosize=1;strokeColor=none;fillColor=none;fontColor=#3399FF;" vertex="1" parent="1">
          <mxGeometry x="1186" y="1321" width="23" height="17" as="geometry" />
        </mxCell>
        <mxCell id="8L7VZlXEO1l-5EI4W1nw-87" value="25" style="text;html=1;align=center;verticalAlign=middle;resizable=0;points=[];autosize=1;strokeColor=none;fillColor=none;fontColor=#3399FF;" vertex="1" parent="1">
          <mxGeometry x="1228" y="1274" width="23" height="17" as="geometry" />
        </mxCell>
        <mxCell id="8L7VZlXEO1l-5EI4W1nw-88" value="25" style="text;html=1;align=center;verticalAlign=middle;resizable=0;points=[];autosize=1;strokeColor=none;fillColor=none;fontColor=#3399FF;" vertex="1" parent="1">
          <mxGeometry x="1204.5" y="1200" width="23" height="17" as="geometry" />
        </mxCell>
        <mxCell id="8L7VZlXEO1l-5EI4W1nw-89" value="26" style="text;html=1;align=center;verticalAlign=middle;resizable=0;points=[];autosize=1;strokeColor=none;fillColor=none;fontColor=#3399FF;" vertex="1" parent="1">
          <mxGeometry x="1299" y="1178" width="23" height="17" as="geometry" />
        </mxCell>
        <mxCell id="8L7VZlXEO1l-5EI4W1nw-90" value="28" style="text;html=1;align=center;verticalAlign=middle;resizable=0;points=[];autosize=1;strokeColor=none;fillColor=none;fontColor=#3399FF;" vertex="1" parent="1">
          <mxGeometry x="1135" y="1178" width="23" height="17" as="geometry" />
        </mxCell>
        <mxCell id="8L7VZlXEO1l-5EI4W1nw-91" value="31" style="text;html=1;align=center;verticalAlign=middle;resizable=0;points=[];autosize=1;strokeColor=none;fillColor=none;fontColor=#3399FF;" vertex="1" parent="1">
          <mxGeometry x="1135" y="1123" width="23" height="17" as="geometry" />
        </mxCell>
        <mxCell id="8L7VZlXEO1l-5EI4W1nw-92" value="32" style="text;html=1;align=center;verticalAlign=middle;resizable=0;points=[];autosize=1;strokeColor=none;fillColor=none;fontColor=#3399FF;" vertex="1" parent="1">
          <mxGeometry x="1131" y="1068" width="23" height="17" as="geometry" />
        </mxCell>
        <mxCell id="8L7VZlXEO1l-5EI4W1nw-93" value="" style="endArrow=none;html=1;rounded=0;strokeWidth=5;strokeColor=#FF3333;" edge="1" parent="1">
          <mxGeometry width="50" height="50" relative="1" as="geometry">
            <mxPoint x="1456" y="1112" as="sourcePoint" />
            <mxPoint x="1506" y="1062" as="targetPoint" />
          </mxGeometry>
        </mxCell>
        <mxCell id="8L7VZlXEO1l-5EI4W1nw-96" value="" style="endArrow=none;html=1;rounded=0;strokeWidth=5;strokeColor=#FF3333;" edge="1" parent="1">
          <mxGeometry width="50" height="50" relative="1" as="geometry">
            <mxPoint x="1615" y="1127" as="sourcePoint" />
            <mxPoint x="1665" y="1077" as="targetPoint" />
          </mxGeometry>
        </mxCell>
        <mxCell id="8L7VZlXEO1l-5EI4W1nw-97" value="" style="endArrow=none;html=1;rounded=0;strokeWidth=5;strokeColor=#FF3333;" edge="1" parent="1">
          <mxGeometry width="50" height="50" relative="1" as="geometry">
            <mxPoint x="1140" y="1109" as="sourcePoint" />
            <mxPoint x="1190" y="1059" as="targetPoint" />
          </mxGeometry>
        </mxCell>
        <mxCell id="8L7VZlXEO1l-5EI4W1nw-98" value="" style="endArrow=none;html=1;rounded=0;strokeWidth=5;strokeColor=#FF3333;" edge="1" parent="1">
          <mxGeometry width="50" height="50" relative="1" as="geometry">
            <mxPoint x="1579.5" y="1179" as="sourcePoint" />
            <mxPoint x="1629.5" y="1129" as="targetPoint" />
          </mxGeometry>
        </mxCell>
        <mxCell id="8L7VZlXEO1l-5EI4W1nw-99" value="" style="endArrow=none;html=1;rounded=0;strokeWidth=5;strokeColor=#FF3333;" edge="1" parent="1">
          <mxGeometry width="50" height="50" relative="1" as="geometry">
            <mxPoint x="1149" y="1150" as="sourcePoint" />
            <mxPoint x="1199" y="1100" as="targetPoint" />
          </mxGeometry>
        </mxCell>
        <mxCell id="8L7VZlXEO1l-5EI4W1nw-100" value="" style="endArrow=none;html=1;rounded=0;strokeWidth=5;strokeColor=#FF3333;" edge="1" parent="1">
          <mxGeometry width="50" height="50" relative="1" as="geometry">
            <mxPoint x="1498" y="1217" as="sourcePoint" />
            <mxPoint x="1548" y="1167" as="targetPoint" />
          </mxGeometry>
        </mxCell>
        <mxCell id="8L7VZlXEO1l-5EI4W1nw-101" value="" style="endArrow=none;html=1;rounded=0;strokeWidth=5;strokeColor=#FF3333;" edge="1" parent="1">
          <mxGeometry width="50" height="50" relative="1" as="geometry">
            <mxPoint x="1576.5" y="1227" as="sourcePoint" />
            <mxPoint x="1626.5" y="1177" as="targetPoint" />
          </mxGeometry>
        </mxCell>
        <mxCell id="8L7VZlXEO1l-5EI4W1nw-102" value="" style="endArrow=none;html=1;rounded=0;strokeWidth=5;strokeColor=#FF3333;" edge="1" parent="1">
          <mxGeometry width="50" height="50" relative="1" as="geometry">
            <mxPoint x="1146.5" y="1208" as="sourcePoint" />
            <mxPoint x="1196.5" y="1158" as="targetPoint" />
          </mxGeometry>
        </mxCell>
        <mxCell id="8L7VZlXEO1l-5EI4W1nw-103" value="" style="endArrow=none;html=1;rounded=0;strokeWidth=5;strokeColor=#FF3333;" edge="1" parent="1">
          <mxGeometry width="50" height="50" relative="1" as="geometry">
            <mxPoint x="1262.5" y="1211.5" as="sourcePoint" />
            <mxPoint x="1312.5" y="1161.5" as="targetPoint" />
          </mxGeometry>
        </mxCell>
        <mxCell id="8L7VZlXEO1l-5EI4W1nw-104" value="" style="endArrow=none;html=1;rounded=0;strokeWidth=5;strokeColor=#FF3333;" edge="1" parent="1">
          <mxGeometry width="50" height="50" relative="1" as="geometry">
            <mxPoint x="1528" y="1284" as="sourcePoint" />
            <mxPoint x="1578" y="1234" as="targetPoint" />
          </mxGeometry>
        </mxCell>
        <mxCell id="8L7VZlXEO1l-5EI4W1nw-105" value="32" style="text;html=1;align=center;verticalAlign=middle;resizable=0;points=[];autosize=1;strokeColor=none;fillColor=none;fontColor=#3399FF;" vertex="1" parent="1">
          <mxGeometry x="486" y="122" width="23" height="17" as="geometry" />
        </mxCell>
      </root>
    </mxGraphModel>
  </diagram>
</mxfile>
